<svg id="visual" viewBox="0 0 900 600" width="900" height="600" xmlns="http://www.w3.org/2000/svg" xmlns:xlink="http://www.w3.org/1999/xlink" version="1.1"><g transform="translate(428.69310502008614 331.9880444168591)"><path d="M144.8 -168.1C194 -131.3 244.7 -91.7 260.7 -40.2C276.6 11.3 257.8 74.6 219.7 113.9C181.6 153.1 124.1 168.2 73.6 174.5C23.1 180.9 -20.5 178.5 -73.2 172C-125.9 165.5 -187.7 154.7 -211.3 119.3C-234.9 83.9 -220.4 23.8 -205.2 -31.7C-190.1 -87.3 -174.5 -138.2 -140.1 -177.7C-105.8 -217.1 -52.9 -245.1 -2.6 -242C47.8 -238.9 95.6 -204.9 144.8 -168.1" fill="#f7950f"></path></g></svg>